<svg width="337" height="151" viewBox="0 0 337 151" fill="none" xmlns="http://www.w3.org/2000/svg">
<path d="M168.136 60L336.271 151H0L168.136 60Z" fill="white"/>
<rect x="175.307" y="128.313" width="22.687" height="22.687" fill="#3E75C8"/>
<rect x="138" y="128.313" width="22.687" height="22.687" fill="#3E75C8"/>
<rect x="175.307" y="94.2825" width="22.687" height="22.687" fill="#3E75C8"/>
<rect x="138" y="94.2825" width="22.687" height="22.687" fill="#3E75C8"/>
<path d="M85.0105 35.547H113V75.5375C104.61 78.5701 95.8324 80.0707 87.0098 79.9808C80.5791 80.1943 74.2022 78.6212 68.4568 75.4042C63.4203 72.3672 59.3759 67.6396 56.9011 61.8963C54.1334 55.0145 52.8072 47.5244 53.0226 39.9904C52.8623 32.6127 54.3748 25.3088 57.4209 18.7511C60.412 12.7936 64.9375 7.96578 70.416 4.88772C76.0939 1.64405 84.8106 0 93.0075 0C96.8861 0 98.9253 0.444338 102.684 1.33301C106.402 2.17726 109.921 2.97706 113 4.44338L109.002 17.7735C106.762 16.5294 103.004 15.7296 100.085 14.9298C97.1698 13.9897 94.1616 13.4525 91.1282 13.3301C86.6499 13.3301 82.7314 14.8409 79.3727 17.0181C76.064 19.204 73.3865 22.3953 71.6556 26.2159C69.8002 30.5079 68.8953 35.2308 69.0166 39.9904C68.9305 44.6565 69.58 49.3033 70.9359 53.7205C72.2154 57.6306 74.2946 60.741 77.0535 62.9627C79.8525 65.1844 83.5311 66.6507 88.0494 66.6507C89.5288 66.6507 91.2482 66.7396 92.3678 66.6507C93.5673 66.5174 95.0068 66.6507 97.006 65.14V48.8772H85.0105V35.547Z" fill="#E0CA78"/>
<path d="M248.5 80H224.5V0H284.5V13.3333H248.5V35.5556H278.5V48.8889H248.5V80Z" fill="#E0CA78"/>
</svg>
